<?xml version="1.0" encoding="utf-8"?>
<!-- Generator: Adobe Illustrator 23.0.0, SVG Export Plug-In . SVG Version: 6.00 Build 0)  -->
<svg version="1.1" xmlns="http://www.w3.org/2000/svg" xmlns:xlink="http://www.w3.org/1999/xlink" x="0px" y="0px"
	 viewBox="0 0 72 56" style="enable-background:new 0 0 72 56;" xml:space="preserve">
<style type="text/css">
	.st0{display:none;}
	.st1{display:inline;opacity:0.25;}
	.st2{fill:#014A75;}
	.st3{fill:#FFFFFF;}
	.st4{fill:#027AC1;}
	.st5{fill:none;stroke:#000000;stroke-miterlimit:10;}
	.st6{fill:#6C8F2E;}
	.st7{fill:none;stroke:#6C8F2E;stroke-width:2;stroke-linejoin:round;stroke-miterlimit:10;}
	.st8{fill:#6C8F2E;stroke:#6C8F2E;stroke-miterlimit:10;}
</style>
<g id="Template" class="st0">
	<g class="st1">
		<path d="M52,2c1.1,0,2,0.9,2,2v48c0,1.1-0.9,2-2,2H20c-1.1,0-2-0.9-2-2V4c0-1.1,0.9-2,2-2H52 M52,0H20c-2.2,0-4,1.8-4,4v48
			c0,2.2,1.8,4,4,4h32c2.2,0,4-1.8,4-4V4C56,1.8,54.2,0,52,0L52,0z"/>
	</g>
	<g class="st1">
		<path d="M56,6c1.1,0,2,0.9,2,2v40c0,1.1-0.9,2-2,2H16c-1.1,0-2-0.9-2-2V8c0-1.1,0.9-2,2-2H56 M56,4H16c-2.2,0-4,1.8-4,4v40
			c0,2.2,1.8,4,4,4h40c2.2,0,4-1.8,4-4V8C60,5.8,58.2,4,56,4L56,4z"/>
	</g>
	<g class="st1">
		<path d="M60,10c1.1,0,2,0.9,2,2v32c0,1.1-0.9,2-2,2H12c-1.1,0-2-0.9-2-2V12c0-1.1,0.9-2,2-2H60 M60,8H12c-2.2,0-4,1.8-4,4v32
			c0,2.2,1.8,4,4,4h48c2.2,0,4-1.8,4-4V12C64,9.8,62.2,8,60,8L60,8z"/>
	</g>
	<g class="st1">
		<path d="M68,14c1.1,0,2,0.9,2,2v24c0,1.1-0.9,2-2,2H4c-1.1,0-2-0.9-2-2V16c0-1.1,0.9-2,2-2H68 M68,12H4c-2.2,0-4,1.8-4,4v24
			c0,2.2,1.8,4,4,4h64c2.2,0,4-1.8,4-4V16C72,13.8,70.2,12,68,12L68,12z"/>
	</g>
	<g class="st1">
		<path d="M36,2c14.3,0,26,11.7,26,26S50.3,54,36,54S10,42.3,10,28S21.7,2,36,2 M36,0C20.5,0,8,12.5,8,28s12.5,28,28,28
			s28-12.5,28-28S51.5,0,36,0L36,0z"/>
	</g>
</g>
<g id="Developers">
</g>
<g id="Domain_Name_Settings">
	<polygon class="st2" points="37.4,20.5 37.4,35.7 48.8,35.7 48.8,41.4 64,28.1 48.8,14.8 48.8,20.5 	"/>
	<path class="st2" d="M32.2,24.8h-1.1c-0.2-0.5-0.4-0.9-0.6-1.4l0.8-0.8c0.9-0.9,0.9-2.3,0-3.1L29.8,18c-0.9-0.9-2.3-0.9-3.1,0
		l-0.8,0.8c-0.4-0.2-0.9-0.4-1.4-0.6v-1.1c0-1.2-1-2.2-2.2-2.2h-2.2c-1.2,0-2.2,1-2.2,2.2v1.1c-0.5,0.2-0.9,0.4-1.4,0.6L15.8,18
		c-0.9-0.9-2.3-0.9-3.1,0l-1.6,1.6c-0.9,0.9-0.9,2.3,0,3.1l0.8,0.8c-0.2,0.4-0.4,0.9-0.6,1.4h-1.1C9,24.8,8,25.8,8,27v2.2
		c0,1.2,1,2.2,2.2,2.2h1.1c0.2,0.5,0.4,0.9,0.6,1.4l-0.8,0.8c-0.9,0.9-0.9,2.3,0,3.1l1.6,1.6c0.9,0.9,2.3,0.9,3.1,0l0.8-0.8
		c0.4,0.2,0.9,0.4,1.4,0.6v1.1c0,1.2,1,2.2,2.2,2.2h2.2c1.2,0,2.2-1,2.2-2.2V38c0.5-0.2,0.9-0.4,1.4-0.6l0.8,0.8
		c0.9,0.9,2.3,0.9,3.1,0l1.6-1.6c0.9-0.9,0.9-2.3,0-3.1l-0.8-0.8c0.2-0.4,0.4-0.9,0.6-1.4h1.1c1.2,0,2.2-1,2.2-2.2V27
		C34.4,25.8,33.4,24.8,32.2,24.8z M21.2,35.6c-4.1,0-7.5-3.4-7.5-7.5s3.4-7.5,7.5-7.5s7.5,3.4,7.5,7.5S25.3,35.6,21.2,35.6z"/>
</g>
<g id="Email">
</g>
<g id="Signing_Up">
</g>
<g id="Privacy_and_Whois">
</g>
<g id="Trade_Accounts">
</g>
<g id="Contact_Information">
</g>
</svg>
